<?xml version="1.0" encoding="UTF-8" standalone="no"?>
<!-- Created with Inkscape (http://www.inkscape.org/) -->

<svg
   width="500"
   height="80"
   viewBox="0 0 132.29166 21.166667"
   version="1.1"
   id="svg5"
   inkscape:version="1.1.1 (3bf5ae0d25, 2021-09-20)"
   sodipodi:docname="gain.svg"
   inkscape:export-filename="D:\VSCode\Loopy\css\sliders\radius.png"
   inkscape:export-xdpi="2539.2"
   inkscape:export-ydpi="2539.2"
   xmlns:inkscape="http://www.inkscape.org/namespaces/inkscape"
   xmlns:sodipodi="http://sodipodi.sourceforge.net/DTD/sodipodi-0.dtd"
   xmlns="http://www.w3.org/2000/svg"
   xmlns:svg="http://www.w3.org/2000/svg">
  <sodipodi:namedview
     id="namedview7"
     pagecolor="#ffffff"
     bordercolor="#666666"
     borderopacity="1.0"
     inkscape:pageshadow="2"
     inkscape:pageopacity="0.0"
     inkscape:pagecheckerboard="0"
     inkscape:document-units="mm"
     showgrid="false"
     units="px"
     inkscape:zoom="1.4681257"
     inkscape:cx="309.91897"
     inkscape:cy="12.601101"
     inkscape:window-width="1920"
     inkscape:window-height="1009"
     inkscape:window-x="1912"
     inkscape:window-y="828"
     inkscape:window-maximized="1"
     inkscape:current-layer="layer2" />
  <defs
     id="defs2">
    <inkscape:path-effect
       effect="bspline"
       id="path-effect4208"
       is_visible="true"
       lpeversion="1"
       weight="33.333333"
       steps="2"
       helper_size="0"
       apply_no_weight="true"
       apply_with_weight="true"
       only_selected="false" />
    <inkscape:path-effect
       effect="bspline"
       id="path-effect4204"
       is_visible="true"
       lpeversion="1"
       weight="33.333333"
       steps="2"
       helper_size="0"
       apply_no_weight="true"
       apply_with_weight="true"
       only_selected="false" />
    <inkscape:path-effect
       effect="bspline"
       id="path-effect4194"
       is_visible="true"
       lpeversion="1"
       weight="33.333333"
       steps="2"
       helper_size="0"
       apply_no_weight="true"
       apply_with_weight="true"
       only_selected="false" />
    <inkscape:path-effect
       effect="bspline"
       id="path-effect4190"
       is_visible="true"
       lpeversion="1"
       weight="33.333333"
       steps="2"
       helper_size="0"
       apply_no_weight="true"
       apply_with_weight="true"
       only_selected="false" />
    <inkscape:path-effect
       effect="bspline"
       id="path-effect4180"
       is_visible="true"
       lpeversion="1"
       weight="33.333333"
       steps="2"
       helper_size="0"
       apply_no_weight="true"
       apply_with_weight="true"
       only_selected="false" />
    <inkscape:path-effect
       effect="bspline"
       id="path-effect4176"
       is_visible="true"
       lpeversion="1"
       weight="33.333333"
       steps="2"
       helper_size="0"
       apply_no_weight="true"
       apply_with_weight="true"
       only_selected="false" />
    <inkscape:path-effect
       effect="bspline"
       id="path-effect4166"
       is_visible="true"
       lpeversion="1"
       weight="33.333333"
       steps="2"
       helper_size="0"
       apply_no_weight="true"
       apply_with_weight="true"
       only_selected="false" />
    <inkscape:path-effect
       effect="bspline"
       id="path-effect4162"
       is_visible="true"
       lpeversion="1"
       weight="33.333333"
       steps="2"
       helper_size="0"
       apply_no_weight="true"
       apply_with_weight="true"
       only_selected="false" />
    <inkscape:path-effect
       effect="bspline"
       id="path-effect4152"
       is_visible="true"
       lpeversion="1"
       weight="33.333333"
       steps="2"
       helper_size="0"
       apply_no_weight="true"
       apply_with_weight="true"
       only_selected="false" />
    <inkscape:path-effect
       effect="bspline"
       id="path-effect4148"
       is_visible="true"
       lpeversion="1"
       weight="33.333333"
       steps="2"
       helper_size="0"
       apply_no_weight="true"
       apply_with_weight="true"
       only_selected="false" />
    <inkscape:path-effect
       effect="bspline"
       id="path-effect4138"
       is_visible="true"
       lpeversion="1"
       weight="33.333333"
       steps="2"
       helper_size="0"
       apply_no_weight="true"
       apply_with_weight="true"
       only_selected="false" />
    <inkscape:path-effect
       effect="bspline"
       id="path-effect4134"
       is_visible="true"
       lpeversion="1"
       weight="33.333333"
       steps="2"
       helper_size="0"
       apply_no_weight="true"
       apply_with_weight="true"
       only_selected="false" />
    <inkscape:path-effect
       effect="bspline"
       id="path-effect1060"
       is_visible="true"
       lpeversion="1"
       weight="33.333333"
       steps="2"
       helper_size="0"
       apply_no_weight="true"
       apply_with_weight="true"
       only_selected="false" />
    <inkscape:path-effect
       effect="bspline"
       id="path-effect863"
       is_visible="true"
       lpeversion="1"
       weight="33.333333"
       steps="2"
       helper_size="0"
       apply_no_weight="true"
       apply_with_weight="true"
       only_selected="false" />
    <inkscape:path-effect
       effect="bspline"
       id="path-effect859"
       is_visible="true"
       lpeversion="1"
       weight="33.333333"
       steps="2"
       helper_size="0"
       apply_no_weight="true"
       apply_with_weight="true"
       only_selected="false" />
  </defs>
  <g
     inkscape:label="Layer 1"
     inkscape:groupmode="layer"
     id="layer1">
    <path
       id="rect52393"
       style="fill:#dddddd;fill-opacity:1;fill-rule:evenodd;stroke:none;stroke-width:2;stroke-linecap:round;stroke-miterlimit:4;stroke-dasharray:none"
       d="M 0 -0.68164062 L 0 81.736328 L 502 81.736328 L 502 -0.68164062 L 0 -0.68164062 z M 455.48633 4.3183594 C 456.46376 4.3103344 465.10303 26.611082 465.88281 27.207031 C 466.66259 27.802981 489.71181 29.721068 489.99609 30.693359 C 490.28038 31.665651 472.4916 47.745405 472.17188 48.722656 C 471.85208 49.699908 476.64548 73.334425 475.84375 73.943359 C 475.04202 74.552294 455.40907 62.189241 454.43164 62.197266 C 453.45421 62.205291 433.36572 74.894778 432.58594 74.298828 C 431.80616 73.702879 437.46007 49.982057 437.17578 49.009766 C 436.89149 48.037474 419.68411 32.24483 420.00391 31.267578 C 420.3237 30.290327 443.45218 27.9937 444.25391 27.384766 C 445.05563 26.775831 454.5089 4.3263844 455.48633 4.3183594 z M 367.56055 9.3183594 C 368.39834 9.3114808 375.80232 28.426686 376.4707 28.9375 C 377.13909 29.448314 396.89701 31.092388 397.14062 31.925781 C 397.3843 32.759174 382.13739 46.541262 381.86328 47.378906 C 381.58917 48.21655 385.69501 68.47415 385.00781 68.996094 C 384.32062 69.518037 367.49404 58.922809 366.65625 58.929688 C 365.81846 58.93656 348.60003 69.811595 347.93164 69.300781 C 347.26326 68.789967 352.10891 48.458393 351.86523 47.625 C 351.62156 46.791607 336.87237 33.255613 337.14648 32.417969 C 337.4206 31.580325 357.24445 29.611787 357.93164 29.089844 C 358.61884 28.5679 366.72275 9.3252379 367.56055 9.3183594 z M 289.63281 14.318359 C 290.33097 14.312627 296.50161 30.24229 297.05859 30.667969 C 297.61558 31.093647 314.08014 32.463709 314.2832 33.158203 C 314.48627 33.852697 301.78116 45.33712 301.55273 46.035156 C 301.32431 46.733193 304.74649 63.615828 304.17383 64.050781 C 303.60117 64.485734 289.57902 55.654424 288.88086 55.660156 C 288.1827 55.665888 273.83238 64.730361 273.27539 64.304688 C 272.7184 63.879009 276.75775 46.934728 276.55469 46.240234 C 276.35163 45.54574 264.06064 34.266396 264.28906 33.568359 C 264.51749 32.870323 281.03671 31.229875 281.60938 30.794922 C 282.18199 30.359969 288.93465 14.324092 289.63281 14.318359 z M 30.277344 19.318359 C 30.835874 19.313774 35.77316 32.057895 36.21875 32.398438 C 36.66434 32.73898 49.835597 33.83503 49.998047 34.390625 C 50.160497 34.94622 39.995241 44.13493 39.8125 44.693359 C 39.629759 45.251789 42.368287 58.755553 41.910156 59.103516 C 41.452026 59.451478 30.234311 52.387992 29.675781 52.392578 C 29.117251 52.397164 17.636996 59.647183 17.191406 59.306641 C 16.745816 58.966098 19.976903 45.413017 19.814453 44.857422 C 19.652003 44.301827 9.8192124 35.277179 10.001953 34.71875 C 10.184694 34.160321 23.401245 32.847962 23.859375 32.5 C 24.317505 32.152038 29.718814 19.322945 30.277344 19.318359 z M 221.70703 19.318359 C 222.26556 19.313774 227.20089 32.057895 227.64648 32.398438 C 228.09207 32.738976 241.26333 33.83503 241.42578 34.390625 C 241.58823 34.94622 231.42493 44.13493 231.24219 44.693359 C 231.05945 45.251789 233.79797 58.755553 233.33984 59.103516 C 232.88171 59.451478 221.66205 52.387992 221.10352 52.392578 C 220.54499 52.397164 209.06668 59.647183 208.62109 59.306641 C 208.1755 58.966098 211.40659 45.413017 211.24414 44.857422 C 211.08169 44.301827 201.2489 35.277179 201.43164 34.71875 C 201.61438 34.160321 214.82898 32.847962 215.28711 32.5 C 215.74524 32.152038 221.1485 19.322945 221.70703 19.318359 z M 163.7793 24.318359 C 164.19819 24.31492 167.90018 33.873499 168.23438 34.128906 C 168.56854 34.384313 178.44848 35.20635 178.57031 35.623047 C 178.69215 36.039743 171.0687 42.930787 170.93164 43.349609 C 170.79459 43.768431 172.8475 53.897231 172.50391 54.158203 C 172.16031 54.419175 163.74702 49.119608 163.32812 49.123047 C 162.90926 49.126486 154.29904 54.565954 153.96484 54.310547 C 153.63065 54.05514 156.05543 43.889353 155.93359 43.472656 C 155.81176 43.05596 148.43716 36.287963 148.57422 35.869141 C 148.71127 35.450319 158.62125 34.46605 158.96484 34.205078 C 159.30844 33.944106 163.3604 24.321799 163.7793 24.318359 z M 115.85352 29.318359 C 116.13278 29.316067 118.60142 35.689104 118.82422 35.859375 C 119.04701 36.029646 125.63167 36.575718 125.71289 36.853516 C 125.79412 37.131313 120.71246 41.726645 120.62109 42.005859 C 120.52972 42.285074 121.89899 49.036956 121.66992 49.210938 C 121.44086 49.384917 115.832 45.853176 115.55273 45.855469 C 115.27347 45.857762 109.53334 49.482771 109.31055 49.3125 C 109.08775 49.142229 110.70232 42.365688 110.62109 42.087891 C 110.53987 41.810093 105.62347 37.298746 105.71484 37.019531 C 105.80621 36.740317 112.41547 36.084137 112.64453 35.910156 C 112.8736 35.736175 115.57425 29.320652 115.85352 29.318359 z M 77.925781 34.318359 C 78.065414 34.317213 79.300712 37.502755 79.412109 37.587891 C 79.523507 37.673026 82.816809 37.947039 82.857422 38.085938 C 82.898034 38.224835 80.356232 40.522502 80.310547 40.662109 C 80.264862 40.801717 80.948517 44.178634 80.833984 44.265625 C 80.719452 44.352616 77.915023 42.586744 77.775391 42.587891 C 77.635758 42.589037 74.765694 44.401542 74.654297 44.316406 C 74.542899 44.231271 75.351159 40.842024 75.310547 40.703125 C 75.269934 40.564226 72.811737 38.307576 72.857422 38.167969 C 72.903107 38.028361 76.207733 37.700272 76.322266 37.613281 C 76.436798 37.526291 77.786149 34.319506 77.925781 34.318359 z "
       transform="scale(0.26458333)" />
  </g>
  <g
     inkscape:groupmode="layer"
     id="layer2"
     inkscape:label="Layer 2"
     style="display:inline">
    <text
       xml:space="preserve"
       style="font-style:normal;font-weight:normal;font-size:19.614px;line-height:1.25;font-family:sans-serif;fill:#ff0000;fill-opacity:1;stroke:none;stroke-width:0.490352"
       x="0.63975722"
       y="19.27177"
       id="text54838"
       transform="scale(1.0808467,0.9252006)"><tspan
         sodipodi:role="line"
         id="tspan54836"
         style="fill:#ff0000;stroke-width:0.490352"
         x="0.63975722"
         y="19.27177">X</tspan></text>
  </g>
</svg>
