<?xml version="1.0" encoding="UTF-8" standalone="no"?>
<!-- Created with Inkscape (http://www.inkscape.org/) -->

<svg
   width="500"
   height="80"
   viewBox="0 0 132.29166 21.166667"
   version="1.1"
   id="svg5"
   inkscape:version="1.1.1 (3bf5ae0d25, 2021-09-20)"
   sodipodi:docname="radius.svg"
   inkscape:export-filename="D:\VSCode\Loopy\css\sliders\radius.png"
   inkscape:export-xdpi="2539.2"
   inkscape:export-ydpi="2539.2"
   xmlns:inkscape="http://www.inkscape.org/namespaces/inkscape"
   xmlns:sodipodi="http://sodipodi.sourceforge.net/DTD/sodipodi-0.dtd"
   xmlns="http://www.w3.org/2000/svg"
   xmlns:svg="http://www.w3.org/2000/svg">
  <sodipodi:namedview
     id="namedview7"
     pagecolor="#ffffff"
     bordercolor="#666666"
     borderopacity="1.0"
     inkscape:pageshadow="2"
     inkscape:pageopacity="0.0"
     inkscape:pagecheckerboard="0"
     inkscape:document-units="mm"
     showgrid="false"
     units="px"
     inkscape:zoom="1.4681257"
     inkscape:cx="309.91897"
     inkscape:cy="12.601101"
     inkscape:window-width="1920"
     inkscape:window-height="1009"
     inkscape:window-x="1912"
     inkscape:window-y="828"
     inkscape:window-maximized="1"
     inkscape:current-layer="layer1" />
  <defs
     id="defs2">
    <inkscape:path-effect
       effect="bspline"
       id="path-effect4208"
       is_visible="true"
       lpeversion="1"
       weight="33.333333"
       steps="2"
       helper_size="0"
       apply_no_weight="true"
       apply_with_weight="true"
       only_selected="false" />
    <inkscape:path-effect
       effect="bspline"
       id="path-effect4204"
       is_visible="true"
       lpeversion="1"
       weight="33.333333"
       steps="2"
       helper_size="0"
       apply_no_weight="true"
       apply_with_weight="true"
       only_selected="false" />
    <inkscape:path-effect
       effect="bspline"
       id="path-effect4194"
       is_visible="true"
       lpeversion="1"
       weight="33.333333"
       steps="2"
       helper_size="0"
       apply_no_weight="true"
       apply_with_weight="true"
       only_selected="false" />
    <inkscape:path-effect
       effect="bspline"
       id="path-effect4190"
       is_visible="true"
       lpeversion="1"
       weight="33.333333"
       steps="2"
       helper_size="0"
       apply_no_weight="true"
       apply_with_weight="true"
       only_selected="false" />
    <inkscape:path-effect
       effect="bspline"
       id="path-effect4180"
       is_visible="true"
       lpeversion="1"
       weight="33.333333"
       steps="2"
       helper_size="0"
       apply_no_weight="true"
       apply_with_weight="true"
       only_selected="false" />
    <inkscape:path-effect
       effect="bspline"
       id="path-effect4176"
       is_visible="true"
       lpeversion="1"
       weight="33.333333"
       steps="2"
       helper_size="0"
       apply_no_weight="true"
       apply_with_weight="true"
       only_selected="false" />
    <inkscape:path-effect
       effect="bspline"
       id="path-effect4166"
       is_visible="true"
       lpeversion="1"
       weight="33.333333"
       steps="2"
       helper_size="0"
       apply_no_weight="true"
       apply_with_weight="true"
       only_selected="false" />
    <inkscape:path-effect
       effect="bspline"
       id="path-effect4162"
       is_visible="true"
       lpeversion="1"
       weight="33.333333"
       steps="2"
       helper_size="0"
       apply_no_weight="true"
       apply_with_weight="true"
       only_selected="false" />
    <inkscape:path-effect
       effect="bspline"
       id="path-effect4152"
       is_visible="true"
       lpeversion="1"
       weight="33.333333"
       steps="2"
       helper_size="0"
       apply_no_weight="true"
       apply_with_weight="true"
       only_selected="false" />
    <inkscape:path-effect
       effect="bspline"
       id="path-effect4148"
       is_visible="true"
       lpeversion="1"
       weight="33.333333"
       steps="2"
       helper_size="0"
       apply_no_weight="true"
       apply_with_weight="true"
       only_selected="false" />
    <inkscape:path-effect
       effect="bspline"
       id="path-effect4138"
       is_visible="true"
       lpeversion="1"
       weight="33.333333"
       steps="2"
       helper_size="0"
       apply_no_weight="true"
       apply_with_weight="true"
       only_selected="false" />
    <inkscape:path-effect
       effect="bspline"
       id="path-effect4134"
       is_visible="true"
       lpeversion="1"
       weight="33.333333"
       steps="2"
       helper_size="0"
       apply_no_weight="true"
       apply_with_weight="true"
       only_selected="false" />
    <inkscape:path-effect
       effect="bspline"
       id="path-effect1060"
       is_visible="true"
       lpeversion="1"
       weight="33.333333"
       steps="2"
       helper_size="0"
       apply_no_weight="true"
       apply_with_weight="true"
       only_selected="false" />
    <inkscape:path-effect
       effect="bspline"
       id="path-effect863"
       is_visible="true"
       lpeversion="1"
       weight="33.333333"
       steps="2"
       helper_size="0"
       apply_no_weight="true"
       apply_with_weight="true"
       only_selected="false" />
    <inkscape:path-effect
       effect="bspline"
       id="path-effect859"
       is_visible="true"
       lpeversion="1"
       weight="33.333333"
       steps="2"
       helper_size="0"
       apply_no_weight="true"
       apply_with_weight="true"
       only_selected="false" />
  </defs>
  <g
     inkscape:label="Layer 1"
     inkscape:groupmode="layer"
     id="layer1">
    <path
       id="rect51545"
       style="fill:#dddddd;fill-opacity:1;fill-rule:evenodd;stroke:none;stroke-width:2;stroke-linecap:round;stroke-miterlimit:4;stroke-dasharray:none"
       d="M 0 -0.68164062 L 0 79.318359 L 500 79.318359 L 500 -0.68164062 L 0 -0.68164062 z M 445.25 5 A 35.000001 35.000001 0 0 1 480.25 40 A 35.000001 35.000001 0 0 1 445.25 75 A 35.000001 35.000001 0 0 1 410.25 40 A 35.000001 35.000001 0 0 1 445.25 5 z M 383.39258 15 A 25.000001 25.000001 0 0 1 408.39258 40 A 25.000001 25.000001 0 0 1 383.39258 65 A 25.000001 25.000001 0 0 1 358.39258 40 A 25.000001 25.000001 0 0 1 383.39258 15 z M 325.53516 20 A 19.999999 19.999999 0 0 1 345.53516 40 A 19.999999 19.999999 0 0 1 325.53516 60 A 19.999999 19.999999 0 0 1 305.53516 40 A 19.999999 19.999999 0 0 1 325.53516 20 z M 267.67773 25 A 15 15 0 0 1 282.67773 40 A 15 15 0 0 1 267.67773 55 A 15 15 0 0 1 252.67773 40 A 15 15 0 0 1 267.67773 25 z M 209.82227 27.5 A 12.5 12.5 0 0 1 222.32227 40 A 12.5 12.5 0 0 1 209.82227 52.5 A 12.5 12.5 0 0 1 197.32227 40 A 12.5 12.5 0 0 1 209.82227 27.5 z M 151.96484 30 A 9.9999995 9.9999995 0 0 1 161.96484 40 A 9.9999995 9.9999995 0 0 1 151.96484 50 A 9.9999995 9.9999995 0 0 1 141.96484 40 A 9.9999995 9.9999995 0 0 1 151.96484 30 z M 94.107422 32.5 A 7.4999999 7.4999999 0 0 1 101.60742 40 A 7.4999999 7.4999999 0 0 1 94.107422 47.5 A 7.4999999 7.4999999 0 0 1 86.607422 40 A 7.4999999 7.4999999 0 0 1 94.107422 32.5 z M 36.25 35 A 4.9999998 4.9999998 0 0 1 41.25 40 A 4.9999998 4.9999998 0 0 1 36.25 45 A 4.9999998 4.9999998 0 0 1 31.25 40 A 4.9999998 4.9999998 0 0 1 36.25 35 z "
       transform="scale(0.26458333)" />
  </g>
</svg>
